<svg width="19" height="10" viewBox="0 0 19 10" fill="none" xmlns="http://www.w3.org/2000/svg">
<path fill-rule="evenodd" clip-rule="evenodd" d="M13.1879 0.292893C13.5794 -0.097631 14.2144 -0.097631 14.606 0.292893L18.6165 4.29231L18.6171 4.29289C18.7133 4.38877 18.7858 4.49927 18.8347 4.61722C18.8838 4.73512 18.9109 4.86441 18.9109 5C18.9109 5.13505 18.884 5.26385 18.8353 5.38138C18.8112 5.43977 18.7813 5.49634 18.7456 5.55023C18.7089 5.60568 18.6661 5.65829 18.6171 5.70711L18.6165 5.70769L14.606 9.70711C14.2144 10.0976 13.5794 10.0976 13.1879 9.70711C12.7963 9.31658 12.7963 8.68342 13.1879 8.29289L15.4871 6H1.8635C1.30968 6 0.860718 5.55228 0.860718 5C0.860718 4.44772 1.30968 4 1.8635 4H15.4871L13.1879 1.70711C12.7963 1.31658 12.7963 0.683417 13.1879 0.292893Z" fill="#030B5D"/>
</svg>
